<?xml version="1.0" encoding="utf-8"?>
<!-- Generator: Adobe Illustrator 16.0.3, SVG Export Plug-In . SVG Version: 6.00 Build 0)  -->
<!DOCTYPE svg PUBLIC "-//W3C//DTD SVG 1.1//EN" "http://www.w3.org/Graphics/SVG/1.1/DTD/svg11.dtd">
<svg version="1.1" id="Capa_1" xmlns="http://www.w3.org/2000/svg" xmlns:xlink="http://www.w3.org/1999/xlink" x="0px" y="0px"
	 width="24px" height="24px" viewBox="0 0 24 24" enable-background="new 0 0 24 24" xml:space="preserve">
<g>
	<path d="M20.347,4.386c0.029,0.142,0.051,0.33,0.065,0.564c0.014,0.233,0.05,0.471,0.105,0.712
		c0.057,0.553,0.112,1.096,0.171,1.628c0.056,0.532,0.156,1.061,0.297,1.585c0.058,0.284,0.1,0.575,0.128,0.873
		c0.028,0.298,0.057,0.589,0.085,0.873c0.17,1.361,0.446,2.638,0.829,3.829c0.028,0.115,0.097,0.341,0.203,0.682
		c0.106,0.34,0.225,0.7,0.351,1.075c0.129,0.376,0.268,0.736,0.415,1.084c0.148,0.349,0.295,0.595,0.438,0.734
		c0.227,0.228,0.394,0.489,0.499,0.788c0.106,0.298,0.131,0.604,0.074,0.914c-0.027,0.2-0.106,0.404-0.234,0.618
		c-0.227,0.354-0.545,0.51-0.956,0.468c-0.114-0.029-0.313-0.071-0.597-0.128c-0.496-0.199-1.008-0.386-1.531-0.563
		c-0.526-0.178-1.036-0.395-1.532-0.65c-0.64-0.326-1.291-0.634-1.959-0.925c-0.666-0.29-1.334-0.62-1.999-0.989
		c-0.439-0.284-0.632-0.141-0.576,0.426c0.028,0.255,0.051,0.519,0.064,0.786c0.014,0.271,0.101,0.533,0.257,0.788
		c0.14,0.354,0.213,0.688,0.213,1c0,0.285-0.069,0.543-0.202,0.777c-0.135,0.233-0.31,0.418-0.522,0.553
		c-0.212,0.137-0.457,0.21-0.733,0.224c-0.277,0.014-0.536-0.063-0.778-0.233c-0.354-0.256-0.727-0.49-1.117-0.703
		s-0.77-0.433-1.139-0.659c-0.468-0.284-0.958-0.529-1.468-0.734c-0.51-0.204-1.007-0.429-1.49-0.67
		c-0.837-0.383-1.681-0.752-2.532-1.107C4.323,17.65,3.465,17.295,2.6,16.94c-0.383-0.142-0.774-0.256-1.171-0.341
		c-0.496-0.141-0.879-0.403-1.149-0.787c-0.44-0.693-0.362-1.29,0.234-1.788c0.383-0.283,0.756-0.566,1.117-0.851
		c0.362-0.284,0.742-0.539,1.139-0.766c0.228-0.142,0.429-0.301,0.607-0.479c0.177-0.177,0.365-0.337,0.564-0.479
		c0.694-0.582,1.358-1.213,1.99-1.894c0.631-0.681,1.266-1.354,1.904-2.021c0.327-0.326,0.645-0.663,0.958-1.011
		C9.104,6.177,9.38,5.798,9.621,5.386c0.412-0.724,1.008-0.88,1.788-0.468c0.199,0.057,0.354,0.227,0.469,0.511
		c0.056,0.142,0.099,0.266,0.127,0.372c0.029,0.107,0.057,0.231,0.085,0.373c0.028,0.412,0.124,0.66,0.287,0.745
		c0.164,0.085,0.464,0,0.905-0.255c0.384-0.227,0.739-0.482,1.063-0.767c0.327-0.284,0.653-0.567,0.98-0.851
		c0.227-0.17,0.436-0.352,0.628-0.543c0.19-0.191,0.398-0.373,0.627-0.542c0.256-0.227,0.504-0.45,0.744-0.67
		c0.241-0.22,0.462-0.464,0.66-0.734c0.255-0.383,0.56-0.571,0.915-0.564c0.354,0.007,0.687,0.181,1,0.521
		c0.171,0.199,0.295,0.429,0.373,0.692C20.351,3.468,20.376,3.862,20.347,4.386z M12.92,10.28v0.298
		c0.143,0.583,0.281,1.142,0.416,1.681c0.136,0.54,0.273,1.085,0.414,1.639c0.114,0.497,0.434,0.859,0.958,1.085
		c0.666,0.328,1.338,0.639,2.012,0.937s1.344,0.61,2.01,0.937c0.198,0.114,0.433,0.199,0.703,0.256
		c0.495,0.141,0.738-0.044,0.722-0.554c0-0.228-0.069-0.519-0.212-0.872c-0.227-0.469-0.394-0.95-0.499-1.448
		c-0.106-0.496-0.203-0.992-0.287-1.488c-0.058-0.327-0.101-0.639-0.129-0.937c-0.027-0.298-0.056-0.61-0.083-0.937
		c-0.059-0.752-0.189-1.503-0.396-2.255c-0.204-0.752-0.279-1.525-0.223-2.319c0-0.113-0.043-0.192-0.128-0.234
		s-0.157-0.035-0.213,0.021c-0.227,0.17-0.452,0.33-0.67,0.479c-0.221,0.148-0.415,0.337-0.586,0.563
		c-0.284,0.327-0.589,0.589-0.914,0.787c-0.327,0.199-0.667,0.404-1.022,0.618c-0.255,0.142-0.508,0.294-0.754,0.458
		c-0.249,0.163-0.502,0.316-0.757,0.457C13.04,9.592,12.92,9.869,12.92,10.28z"/>
</g>
</svg>
