<?xml version="1.0" encoding="utf-8"?>
<!-- Generator: Adobe Illustrator 16.0.3, SVG Export Plug-In . SVG Version: 6.00 Build 0)  -->
<!DOCTYPE svg PUBLIC "-//W3C//DTD SVG 1.1//EN" "http://www.w3.org/Graphics/SVG/1.1/DTD/svg11.dtd">
<svg version="1.1" id="Capa_1" xmlns="http://www.w3.org/2000/svg" xmlns:xlink="http://www.w3.org/1999/xlink" x="0px" y="0px"
	 width="24px" height="24px" viewBox="0 0 24 24" enable-background="new 0 0 24 24" xml:space="preserve">
<g>
	<path d="M6.422,13.777H4.875c-1.156,0-1.734-0.563-1.734-1.688c0-0.359,0.016-0.703,0.047-1.031s0.086-0.672,0.164-1.031
		c0.094-0.484,0.332-0.844,0.715-1.078S4.867,8.707,5.32,8.926s0.918,0.379,1.395,0.48S7.664,9.59,8.133,9.652
		C8.258,9.684,8.387,9.699,8.52,9.699s0.277,0,0.434,0c0.25-0.063,0.473-0.16,0.668-0.293s0.324-0.355,0.387-0.668
		c0.063-0.359,0.117-0.809,0.164-1.348s0.055-1.066,0.023-1.582c0.063-0.703,0.129-1.27,0.199-1.699s0.23-0.676,0.48-0.738
		c0.313-0.063,0.555-0.078,0.727-0.047c0.422,0.063,0.832,0.102,1.23,0.117s0.816,0.008,1.254-0.023
		c0.422,0,0.758,0.188,1.008,0.563c0.25,0.359,0.41,0.684,0.48,0.973s0.074,0.785,0.012,1.488c-0.094,0.609-0.156,1.281-0.188,2.016
		s0.031,1.18,0.188,1.336c0.156,0.188,0.34,0.273,0.551,0.258s0.41-0.023,0.598-0.023c0.453,0,0.895,0,1.324,0
		s0.871-0.016,1.324-0.047c0.422,0,0.758,0.195,1.008,0.586c0.25,0.484,0.398,0.973,0.445,1.465s0.023,0.996-0.07,1.512
		c-0.063,0.453-0.246,0.781-0.551,0.984s-0.684,0.273-1.137,0.211c-0.641-0.063-1.266-0.125-1.875-0.188s-1.211-0.18-1.805-0.352
		c-0.313-0.063-0.535-0.043-0.668,0.059s-0.23,0.309-0.293,0.621c-0.125,0.453-0.141,0.953-0.047,1.5
		c0.094,0.609,0.098,1.191,0.012,1.746s-0.207,1.121-0.363,1.699c-0.094,0.359-0.227,0.594-0.398,0.703s-0.438,0.164-0.797,0.164
		c-0.063,0-0.246-0.016-0.551-0.047s-0.633-0.055-0.984-0.07s-0.68-0.039-0.984-0.07s-0.473-0.047-0.504-0.047
		c-0.391-0.063-0.695-0.207-0.914-0.434s-0.297-0.535-0.234-0.926c0.094-0.578,0.156-1.168,0.188-1.77s0.125-1.191,0.281-1.77
		c0.063-0.125,0.102-0.254,0.117-0.387s0.047-0.277,0.094-0.434c0.031-0.609-0.211-0.914-0.727-0.914
		c-0.359-0.031-0.727-0.047-1.102-0.047S6.781,13.777,6.422,13.777z"/>
</g>
</svg>
