<?xml version="1.0" encoding="utf-8"?>
<!-- Generator: Adobe Illustrator 16.0.3, SVG Export Plug-In . SVG Version: 6.00 Build 0)  -->
<!DOCTYPE svg PUBLIC "-//W3C//DTD SVG 1.1//EN" "http://www.w3.org/Graphics/SVG/1.1/DTD/svg11.dtd">
<svg version="1.1" id="Capa_1" xmlns="http://www.w3.org/2000/svg" xmlns:xlink="http://www.w3.org/1999/xlink" x="0px" y="0px"
	 width="24px" height="24px" viewBox="0 0 24 24" enable-background="new 0 0 24 24" xml:space="preserve">
<g>
	<path d="M11.72,16.43c0.063,0.359,0.055,0.703-0.023,1.031s-0.242,0.625-0.492,0.891c-0.156,0.156-0.34,0.281-0.551,0.375
		s-0.449,0.094-0.715,0c-0.25-0.094-0.461-0.223-0.633-0.387s-0.281-0.387-0.328-0.668c-0.063-0.359-0.063-0.68,0-0.961
		c0.031-0.422,0.105-0.816,0.223-1.184s0.223-0.738,0.316-1.113c0.125-0.453,0.219-0.953,0.281-1.5
		c0.063-0.281-0.063-0.5-0.375-0.656c-0.25-0.156-0.602-0.273-1.055-0.352c-0.359-0.031-0.723-0.063-1.09-0.094
		s-0.723-0.078-1.066-0.141c-0.547,0-0.883-0.211-1.008-0.633c-0.156-0.578-0.063-1.055,0.281-1.43
		C5.673,9.391,5.978,9.313,6.4,9.375C6.853,9.438,7.287,9.5,7.701,9.563s0.84,0.125,1.277,0.188c0.156,0,0.398,0.031,0.727,0.094
		c0.359,0.031,0.602,0,0.727-0.094s0.219-0.32,0.281-0.68s0.109-0.703,0.141-1.031s0.078-0.672,0.141-1.031
		c0.031-0.156,0.051-0.313,0.059-0.469s0.043-0.32,0.105-0.492c0.156-0.578,0.477-0.859,0.961-0.844c0.25,0,0.488,0.086,0.715,0.258
		c0.227,0.172,0.372,0.383,0.434,0.633c0.063,0.156,0.086,0.332,0.07,0.527s-0.039,0.395-0.07,0.598
		c-0.063,0.453-0.117,0.91-0.164,1.371s-0.11,0.91-0.188,1.348c-0.063,0.391,0.102,0.633,0.493,0.727
		c0.547,0.156,1.105,0.293,1.676,0.41s1.145,0.191,1.723,0.223c0.156,0,0.316-0.008,0.48-0.023s0.324,0.008,0.48,0.07
		c0.516,0.125,0.855,0.379,1.02,0.762s0.082,0.801-0.246,1.253c-0.188,0.281-0.379,0.477-0.574,0.586s-0.551,0.086-1.066-0.07
		c-0.641-0.25-1.289-0.43-1.945-0.539s-1.297-0.219-1.922-0.328c-0.25-0.062-0.434-0.05-0.551,0.035
		c-0.117,0.086-0.207,0.254-0.27,0.504c-0.094,0.484-0.207,0.957-0.34,1.418S11.689,15.914,11.72,16.43z"/>
</g>
</svg>
